<svg xmlns="http://www.w3.org/2000/svg" viewBox="0 0 48 48">
  <defs>
    <linearGradient id="g1" x1="0%" y1="0%" x2="100%" y2="100%">
      <stop offset="0%" style="stop-color:#34d399"/>
      <stop offset="100%" style="stop-color:#06b6d4"/>
    </linearGradient>
  </defs>
  <circle cx="24" cy="24" r="22" fill="url(#g1)" opacity="0.15"/>
  <circle cx="24" cy="24" r="20" fill="none" stroke="url(#g1)" stroke-width="2"/>
  <!-- Leaf -->
  <path d="M24 8c-8 6-12 14-10 22 1-3 4-5 7-6 1-4 3-8 6-12 3 4 5 8 6 12 3 1 6 3 7 6 2-8-2-16-10-22z" 
        fill="url(#g1)" opacity="0.9"/>
  <path d="M24 14v16" stroke="white" stroke-width="1.5" stroke-linecap="round" opacity="0.6"/>
  <path d="M24 20c-3 2-5 4-6 7" stroke="white" stroke-width="1" stroke-linecap="round" opacity="0.4" fill="none"/>
  <path d="M24 24c3 2 5 4 6 5" stroke="white" stroke-width="1" stroke-linecap="round" opacity="0.4" fill="none"/>
</svg>
